<?xml version="1.0" encoding="utf-8" ?>
<svg xmlns="http://www.w3.org/2000/svg" xmlns:xlink="http://www.w3.org/1999/xlink" width="23" height="23">
	<path fill="#080040" d="M20.443626 0C21.857361 0 23 1.14264 23 2.5563734L23 20.443626C23 21.857361 21.857361 23 20.443626 23L2.5563734 23C1.14264 23 0 21.857361 0 20.443626L0 2.5563734C0 1.14264 1.14264 0 2.5563734 0L20.443626 0ZM17.1304 6.3798933C16.63176 5.8794131 15.824614 5.8794131 15.32352 6.3798933C14.825493 6.8785334 14.825493 7.6881332 15.32352 8.1867733L17.360399 10.22304L7.6666665 10.22304C6.9601068 10.22304 6.3897066 10.79344 6.3897066 11.5C6.3897066 12.20656 6.9601068 12.77696 7.6666665 12.77696L17.360399 12.77696L15.32352 14.813227C14.825493 15.311867 14.825493 16.121468 15.32352 16.620106C15.573147 16.86912 15.90128 16.993628 16.226959 16.993628C16.555094 16.993628 16.880774 16.86912 17.1304 16.620106L21.347067 12.40344C21.847548 11.9048 21.847548 11.0952 21.347067 10.59656L17.1304 6.3798933Z" fill-rule="evenodd"/>
</svg>
